# xmcd CD database file
#
# Track frame offsets:
#	182
#	9927
#	23042
#	37792
#	48877
#	59702
#	72440
#	92635
#	101497
#	132067
#
# Disc length: 1919 seconds
#
# Revision: 0
# Processed by: cddbd v1.5.1PL0 Copyright (c) Steve Scherf et al.
# Submitted via: CDex 1.51
#
DISCID=75077d0a
DTITLE=Louis Armstrong - Joue et Chante Disney
DYEAR=1968
DGENRE=Jazz
TTITLE0=Bibbidi-bobbidi-boo
TTITLE1='Bout time
TTITLE2=Davy Crockett
TTITLE3=Bare Necessities
TTITLE4=Zip-a-dee-doo-dah
TTITLE5=Ten Feet off the ground
TTITLE6=When you wish upon a star
TTITLE7=Whistle while you work
TTITLE8=Chim chim cheree
TTITLE9=Heigh-ho
EXTD=YEAR: 1968
EXTT0=
EXTT1=
EXTT2=
EXTT3=
EXTT4=
EXTT5=
EXTT6=
EXTT7=
EXTT8=
EXTT9=
PLAYORDER=
